<?xml version="1.0" encoding="utf-8"?>
<!-- Generator: Adobe Illustrator 24.0.2, SVG Export Plug-In . SVG Version: 6.00 Build 0)  -->
<svg version="1.1" id="Capa_1" xmlns="http://www.w3.org/2000/svg" xmlns:xlink="http://www.w3.org/1999/xlink" x="0px" y="0px"
	 viewBox="0 0 250 250" style="enable-background:new 0 0 250 250;" xml:space="preserve">
<style type="text/css">
	.st0{fill:none;}
</style>
<path class="st0" d="M142.76,226.03l-1.42-0.81L142.76,226.03l-0.01-92.38h0l98.02-56.54L107.3-0.24L9.23,56.33l0.01,116.44
	l133.53,77.47l98.01-56.67l-21.03-12.19L142.76,226.03z M210.22,77.05l-66.7,38.66l-18.71-10.62v0l66.9-38.76L210.22,77.05z
	 M24.3,157.52L24.3,157.52l0-92.43l82.64-47.89l18.5,10.73L42.82,75.81l0.02,92.41L24.3,157.52z M57.68,177.29l0.21-92.71
	l82.66-47.9l36.05,20.9L94.1,105.4l-0.01,0l0.01,50.8L57.68,177.29z"/>
</svg>
